<svg width="16" height="14" viewBox="0 0 16 14" fill="none" xmlns="http://www.w3.org/2000/svg">
<g clip-path="url(#clip0_101_7)">
<path d="M8.34153 10.1679C7.81017 10.2994 7.29501 10.3645 6.79724 10.3645C4.721 10.3645 3.50896 9.34774 3.50896 7.31416V3.91912H2.21356V2.04957H3.50896V0H5.75133V2.05017H8.07645V3.91971H5.75133V7.11755C5.75133 8.03604 6.21611 8.3801 7.27942 8.3801C7.41196 8.3801 7.761 8.36352 8.34213 8.31437V10.1673L8.34153 10.1679Z" fill="white"/>
<path d="M12.0286 3.06698V2.05019H9.96918V13.12H12.2115V9.38092C12.8095 10.0205 13.6731 10.3651 14.6698 10.3651C15.1424 10.3651 15.5886 10.2858 16.0006 10.1407V7.44031C15.6204 8.00882 14.9877 8.34814 14.2548 8.34814C13.1087 8.34814 12.1786 7.54454 12.1786 6.10137C12.1786 4.6582 13.1255 3.87118 14.2548 3.87118C14.9949 3.87118 15.6234 4.20162 16.0006 4.76834V2.09046C15.5886 1.94774 15.1424 1.86957 14.6698 1.86957C13.5405 1.86957 12.5774 2.29595 12.0292 3.06698H12.0286Z" fill="white"/>
<path d="M1.13408 10.3775C1.76041 10.3775 2.26815 9.87618 2.26815 9.25771C2.26815 8.63925 1.76041 8.13788 1.13408 8.13788C0.507743 8.13788 0 8.63925 0 9.25771C0 9.87618 0.507743 10.3775 1.13408 10.3775Z" fill="white"/>
</g>
<defs>
<clipPath id="clip0_101_7">
<rect width="16" height="13.12" fill="white"/>
</clipPath>
</defs>
</svg>
